<svg width="109" height="43" viewBox="0 0 109 43" fill="none" xmlns="http://www.w3.org/2000/svg">
<path d="M64.9315 11.4285C62.1883 8.68528 58.9316 6.50918 55.3475 5.02458C51.7633 3.53998 47.9219 2.77588 44.0424 2.77588C40.1629 2.77588 36.3215 3.53998 32.7373 5.02458C29.1532 6.50918 25.8965 8.68528 23.1533 11.4285L44.0424 32.3175L64.9315 11.4285Z" fill="#FFD200"/>
<path d="M44.0686 32.3476C46.8118 35.0908 50.0684 37.2668 53.6526 38.7514C57.2367 40.236 61.0782 41.0001 64.9577 41.0001C68.837 41.0001 72.679 40.236 76.263 38.7514C79.847 37.2668 83.104 35.0908 85.847 32.3476L64.9577 11.4585L44.0686 32.3476Z" fill="#06E07F"/>
<path d="M44.017 32.343C41.2738 35.0862 38.0171 37.2622 34.433 38.7468C30.8488 40.2314 27.0074 40.9955 23.1279 40.9955C19.2484 40.9955 15.407 40.2314 11.8228 38.7468C8.2387 37.2622 4.982 35.0862 2.2388 32.343L23.1279 11.4539L44.017 32.343Z" fill="#E3073C"/>
<path d="M64.9831 11.433C67.726 8.68982 70.983 6.51382 74.567 5.02922C78.151 3.54462 81.993 2.78052 85.872 2.78052C89.752 2.78052 93.593 3.54462 97.177 5.02922C100.761 6.51382 104.018 8.68982 106.761 11.433L85.872 32.3221L64.9831 11.433Z" fill="#1F84EF"/>
</svg>

