<svg width="41" height="41" viewBox="0 0 41 41" fill="none" xmlns="http://www.w3.org/2000/svg">
<path d="M2.25 0.25C1.00737 0.25 0 1.25737 0 2.5V16C0 17.2427 1.00737 18.25 2.25 18.25H15.75C16.9927 18.25 18 17.2427 18 16V2.5C18 1.25737 16.9927 0.25 15.75 0.25H2.25ZM2.25 22.75C1.00737 22.75 0 23.7573 0 25V38.5C0 39.7427 1.00737 40.75 2.25 40.75H15.75C16.9927 40.75 18 39.7427 18 38.5V25C18 23.7573 16.9927 22.75 15.75 22.75H2.25ZM24.75 22.75C23.5073 22.75 22.5 23.7573 22.5 25V38.5C22.5 39.7427 23.5073 40.75 24.75 40.75H38.25C39.4927 40.75 40.5 39.7427 40.5 38.5V25C40.5 23.7573 39.4927 22.75 38.25 22.75H24.75ZM29.25 18.25V11.5H22.5V7H29.25V0.25H33.75V7H40.5V11.5H33.75V18.25H29.25Z" fill="white"/>
</svg>
