<svg width="41" height="41" viewBox="0 0 41 41" fill="none" xmlns="http://www.w3.org/2000/svg">
<path d="M15.75 11.5H24.75V8.125C24.75 3.77575 28.2757 0.25 32.625 0.25C36.9743 0.25 40.5 3.77575 40.5 8.125C40.5 12.4742 36.9743 16 32.625 16H29.25V25H32.625C36.9743 25 40.5 28.5257 40.5 32.875C40.5 37.2243 36.9743 40.75 32.625 40.75C28.2757 40.75 24.75 37.2243 24.75 32.875V29.5H15.75V32.875C15.75 37.2243 12.2242 40.75 7.875 40.75C3.52575 40.75 0 37.2243 0 32.875C0 28.5257 3.52575 25 7.875 25H11.25V16H7.875C3.52575 16 0 12.4742 0 8.125C0 3.77575 3.52575 0.25 7.875 0.25C12.2242 0.25 15.75 3.77575 15.75 8.125V11.5ZM11.25 11.5V8.125C11.25 6.26103 9.73897 4.75 7.875 4.75C6.01103 4.75 4.5 6.26103 4.5 8.125C4.5 9.98897 6.01103 11.5 7.875 11.5H11.25ZM11.25 29.5H7.875C6.01103 29.5 4.5 31.0111 4.5 32.875C4.5 34.7389 6.01103 36.25 7.875 36.25C9.73897 36.25 11.25 34.7389 11.25 32.875V29.5ZM29.25 11.5H32.625C34.4889 11.5 36 9.98897 36 8.125C36 6.26103 34.4889 4.75 32.625 4.75C30.7611 4.75 29.25 6.26103 29.25 8.125V11.5ZM29.25 29.5V32.875C29.25 34.7389 30.7611 36.25 32.625 36.25C34.4889 36.25 36 34.7389 36 32.875C36 31.0111 34.4889 29.5 32.625 29.5H29.25ZM15.75 16V25H24.75V16H15.75Z" fill="white"/>
</svg>
